# xmcd
#
# Track frame offsets:
#	150
#	2802
#	19777
#	46582
#	65225
#	77597
#	82912
#	102392
#	110110
#	114957
#	121467
#	129295
#	147517
#	163357
#	179665
#	195547
#	211290
#	233045
#	252070
#	268445
#	288402
#	303217
#	316057
#	330612
#
# Disc length: 4658 seconds
#
# Revision: 1
# Processed by: cddbd v1.5.1PL0 Copyright (c) Steve Scherf et al.
# Submitted via: CDex 1.50Beta5
#
DISCID=56123018
DTITLE=MAHO堂 - おジャ魔女どれみドッカ〜ン！ MEMORIAL CD BOX
DYEAR=2003
DGENRE=Music
TTITLE0=アバンタイトル
TTITLE1=おしゃれZAKKAはMAHO堂
TTITLE2=眠れる森の先々代女王様
TTITLE3=心揺れる、不安
TTITLE4=おジャ魔女ドッカ〜ン！と、勢ぞろい！
TTITLE5=だんすdeパオちゃん
TTITLE6=感動くらいまっくす
TTITLE7=ルピナスの子守唄(アコーディオンVer)
TTITLE8=DANCE!おジャ魔女(アコーディオンVer)
TTITLE9=わたしのつばさ(アコーディオンVer)
TTITLE10=きっと明日は(アコーディオンVer)
TTITLE11=おジャ魔女音頭でハッピッピ！！(カラオケ)
TTITLE12=MAHOでチャチャチャ(カラオケ)
TTITLE13=ドッカ〜ン！パーティタイム！！(カラオケ)
TTITLE14=深爪ファイター(カラオケ)
TTITLE15=それゆけ！マジョレンジャー(カラオケ)
TTITLE16=気合い一発キメちゃえ乙女！(カラオケ)
TTITLE17=ずっとFriend(カラオケ)
TTITLE18=あなた追いかけ人生港(カラオケ)
TTITLE19=わたしはおジャ魔女ハナちゃん(カラオケ)
TTITLE20=だいすきな絵本とママのうた(カラオケ)
TTITLE21=だもんね！ハナちゃん(カラオケ)
TTITLE22=DANCE!おジャ魔女(カラオケ)
TTITLE23=わたしのつばさ(カラオケ)
EXTD=
EXTT0=
EXTT1=
EXTT2=
EXTT3=
EXTT4=
EXTT5=
EXTT6=
EXTT7=
EXTT8=
EXTT9=
EXTT10=
EXTT11=
EXTT12=
EXTT13=
EXTT14=
EXTT15=
EXTT16=
EXTT17=
EXTT18=
EXTT19=
EXTT20=
EXTT21=
EXTT22=
EXTT23=
PLAYORDER=
